PathFileType	4	(X/Y/Z)	c:/Users/goper/Files/vsCode/490R/osim_files/C15/C15_Fast_06.trc
DataRate	CameraRate	NumFrames	NumMarkers	Units                	OrigDataRate	OrigDataStartFrame	OrigNumFrames
250.00	250.00	11	36	mm	250.0	812	2165
                Frame#	Time	LPSIS			LASIS			LTH1			LTH2			LTH3			LTH4			LLFE			LMFE			LSH1			LSH2			LSH3			LSH4			LLMAL			LMMAL			LCAL			LMTP5			LTOE			LMTP1			RPSIS			RASIS			RTH1			RTH2			RTH3			RTH4			RLFE			RMFE			RSH1			RSH2			RSH3			RSH4			RLMAL			RMMAL			RCAL			RMTP1			RTOE			RMTP5		
		X1	Y1	Z1	X2	Y2	Z2	X3	Y3	Z3	X4	Y4	Z4	X5	Y5	Z5	X6	Y6	Z6	X7	Y7	Z7	X8	Y8	Z8	X9	Y9	Z9	X10	Y10	Z10	X11	Y11	Z11	X12	Y12	Z12	X13	Y13	Z13	X14	Y14	Z14	X15	Y15	Z15	X16	Y16	Z16	X17	Y17	Z17	X18	Y18	Z18	X19	Y19	Z19	X20	Y20	Z20	X21	Y21	Z21	X22	Y22	Z22	X23	Y23	Z23	X24	Y24	Z24	X25	Y25	Z25	X26	Y26	Z26	X27	Y27	Z27	X28	Y28	Z28	X29	Y29	Z29	X30	Y30	Z30	X31	Y31	Z31	X32	Y32	Z32	X33	Y33	Z33	X34	Y34	Z34	X35	Y35	Z35	X36	Y36	Z36

812	3.24400	902.95471	994.55377	261.30109	729.83661	972.64343	305.98035	702.07281	587.89154	374.53317	689.18085	546.15326	357.43216	657.66022	613.07129	369.91574	635.32788	578.00128	360.83185	654.25378	487.01025	337.79568	656.55475	471.34875	218.35570	686.29254	368.60855	349.30865	677.88312	325.40540	354.51849	626.03546	377.78940	347.58444	624.74994	334.32379	353.89496	607.57831	75.26022	296.59509	586.88141	104.07343	208.57074	659.55011	48.52596	248.34737	478.64557	38.64189	314.08212	426.57883	81.27884	259.06198	461.63776	48.57042	199.66557	912.92169	993.84259	141.53146	766.55524	961.64728	60.97960	896.47614	603.90747	17.24132	903.65344	558.53149	25.08859	836.54468	590.33691	26.55101	851.00507	544.61255	30.57626	922.94244	466.56924	44.50438	929.41211	449.85782	164.88777	1047.46594	419.15469	33.11281	1072.96729	383.23666	30.06936	1000.00555	377.16153	31.53491	1032.46082	348.53836	27.92937	1210.32104	150.98639	87.92185	1171.20508	155.98213	173.05008	1277.42102	159.84949	132.52400	1127.32751	38.78646	187.85080	1093.51990	51.51402	137.36763	1149.26965	32.19146	69.44913
813	3.24800	897.18878	994.96906	261.48059	723.88336	973.01892	306.33615	695.84155	588.64911	375.74359	683.07385	546.96118	358.45157	651.07440	614.02661	370.92810	629.93219	578.01355	360.81641	647.83105	487.25455	338.12747	651.78510	471.23129	219.51643	681.07452	369.10114	350.37494	673.21619	326.28159	356.16217	621.13824	378.40585	348.17999	620.18311	334.82690	354.63373	606.73169	75.17742	296.64835	585.97650	103.98542	208.69437	659.11694	49.06424	248.44531	477.75412	37.55236	314.53577	425.62122	79.21544	259.07773	461.06656	47.01057	199.68695	906.92310	993.77667	141.72165	760.23785	961.32300	61.50861	889.50305	603.31628	17.47127	896.54218	557.95868	25.03589	829.68250	590.00635	26.28388	843.80096	544.19025	30.27952	912.58551	464.60294	45.20505	921.77698	449.07205	164.73689	1040.58191	420.56415	33.63287	1066.66479	384.85654	30.53562	993.89349	378.09970	31.16199	1026.79810	349.89725	27.63023	1206.56372	153.54802	87.48829	1166.61572	157.64969	171.78946	1273.07715	164.21169	132.43906	1126.37793	39.33286	187.77208	1092.47083	51.44212	137.28963	1148.73340	32.62528	69.49052
814	3.25200	891.50861	995.40594	261.65845	718.44867	973.13409	307.37717	690.62775	590.87433	377.64365	676.78125	547.80286	359.41458	644.38727	615.07404	371.79953	624.64941	578.02161	360.85449	642.42645	488.18097	339.04871	647.05615	472.02173	220.33104	676.28357	369.85608	351.82535	668.09155	326.42426	357.16281	616.86334	379.17715	349.30771	615.75043	335.19595	355.30823	606.19812	75.34155	296.39731	585.10138	103.89871	208.86832	658.81750	49.49525	248.60918	477.11853	36.75385	314.38049	424.69315	77.46436	258.60098	461.33975	45.95885	198.90854	901.09131	993.80353	141.82062	754.29883	961.10156	62.31807	882.36774	602.55243	17.40155	889.20654	557.26978	24.93576	822.53796	589.62085	26.13356	836.43738	543.74048	29.90153	904.74933	463.97601	44.89979	914.00867	448.22617	164.56557	1033.64038	422.11755	34.08960	1060.30798	386.71927	30.83246	987.73102	379.18005	30.52577	1020.88959	351.33279	27.31924	1202.46643	155.99252	87.04755	1161.66479	160.21156	171.98233	1268.33862	168.57440	132.19370	1125.47327	40.43571	187.70155	1091.57666	51.45534	137.09189	1148.05212	33.13268	69.53630
815	3.25600	885.89307	995.86554	261.81085	712.52216	973.47913	308.36719	682.76440	590.17261	378.20499	670.45734	548.66547	360.16898	637.55261	616.10681	372.36633	619.48810	578.02429	360.95013	636.21515	488.23462	339.34131	642.17004	472.67093	221.01199	671.66144	370.56277	353.30072	664.52753	327.77597	359.11398	612.38843	379.48901	349.99023	611.60181	335.56677	356.00656	605.43414	75.26874	296.42041	584.49731	103.84474	208.96053	658.51941	49.84778	248.79303	476.48474	36.25028	313.96646	423.80743	75.50224	257.49002	460.48361	43.97055	198.63426	895.13928	993.82050	141.94586	747.96582	961.04553	63.26175	875.66614	602.41040	17.28883	881.78650	556.66370	24.81097	815.28040	589.30145	25.90456	829.01685	543.32275	29.50557	896.68512	463.40289	44.58629	905.88324	447.09811	164.37173	1026.45251	423.67731	34.66974	1053.05359	389.50406	32.18417	981.11823	380.12814	30.04124	1014.73474	352.87360	26.94146	1198.08325	158.59282	86.50171	1156.33398	161.31636	170.05360	1263.39673	173.15395	131.89285	1124.28967	41.44216	187.58322	1090.54041	51.65829	136.62837	1147.54565	33.85757	69.60657
816	3.26000	880.42755	996.43634	261.89520	707.44434	973.90460	308.89746	677.68677	592.45264	379.55063	664.10364	549.56879	360.89111	631.58954	617.00311	372.94629	614.45673	578.02063	361.10745	631.19708	489.04077	340.22632	637.12897	473.45099	221.77985	667.24774	371.25516	354.75800	660.42609	328.33914	360.38647	607.96466	379.57013	350.64883	607.51434	335.71234	356.66064	604.35400	74.92706	296.78223	584.07983	103.82064	208.96561	658.32404	50.20633	248.91960	475.46695	35.57845	313.12909	423.20312	74.10812	256.27560	459.71902	41.60053	198.43631	889.35559	993.86578	142.08426	742.54126	961.07794	63.17644	868.35101	601.71741	17.17251	874.19482	555.97156	24.66702	807.92615	588.99719	25.71452	821.41302	542.89600	29.08171	888.57806	462.80780	44.16468	897.72247	446.11771	164.15839	1018.93610	425.23544	35.22226	1046.25867	391.74231	32.40079	974.37695	381.19147	29.31510	1008.36334	354.38089	26.54387	1193.49219	161.29713	85.93243	1150.96106	163.22079	168.29575	1258.10229	177.74297	131.26732	1123.01379	42.71277	187.44841	1088.98206	51.58360	136.14395	1146.71228	34.61121	70.06072
817	3.26400	875.55042	997.02539	262.05975	701.95062	974.29974	309.83096	671.62561	593.44434	380.30856	657.78516	550.46533	361.62335	625.51251	617.98047	373.16357	609.56366	578.00940	361.33060	625.87384	489.43417	340.75168	631.91663	473.96735	222.51596	663.54266	373.14578	357.36673	655.61029	328.09668	361.04550	603.54413	379.50534	351.18222	602.89038	334.65912	355.89258	603.74725	75.20846	296.53580	583.74750	103.82875	208.94406	658.07397	50.48952	249.10840	475.47302	35.85587	312.92538	422.54416	72.74368	255.00693	459.57544	40.08443	197.66370	883.55780	993.95471	142.18266	736.22473	960.58466	64.34003	860.87213	601.05371	17.21568	866.45221	555.23712	24.51787	800.38721	588.65350	25.51665	813.76428	542.62262	28.58857	882.42432	463.30276	43.07649	886.93878	443.37592	163.02168	1011.22668	426.78644	35.81309	1038.96179	393.59982	32.98692	967.33081	382.17648	28.73697	1001.81885	355.98300	26.06084	1188.54956	164.06454	85.32671	1146.15295	165.81097	168.10080	1252.62939	182.80161	131.01930	1121.48145	44.30839	187.28549	1087.41125	51.60061	135.80334	1146.09302	35.51227	69.86205
818	3.26800	869.55988	997.53546	262.13171	696.62207	974.68512	310.71597	665.80280	594.44214	379.72189	651.76245	551.32483	362.34891	620.04407	619.04871	372.94797	604.81750	577.98944	361.62350	621.20300	490.19928	341.38925	626.98547	475.48111	222.83878	659.32532	373.62897	358.63065	652.44269	329.19385	362.67557	598.81415	378.75497	351.63077	598.86975	334.73734	356.48633	602.48712	74.80949	296.87173	582.88800	103.73951	209.86298	657.83215	50.73584	249.26340	474.98813	35.71239	312.47821	422.02368	71.40554	253.92648	458.84012	38.60460	197.95801	877.83069	994.04395	142.33008	730.69482	960.55756	65.03618	853.32043	600.48096	17.44860	858.68970	554.57629	24.34086	792.77795	588.32166	25.32928	806.08350	542.28357	28.03327	871.82642	461.66473	43.28846	877.37622	441.58829	162.51675	1003.48853	428.41650	36.21753	1031.38623	395.53583	33.45148	960.11493	383.21179	28.01436	994.97296	357.53262	25.61715	1183.49683	167.01595	84.66833	1137.79688	165.80182	165.59105	1246.80029	187.94289	130.11594	1119.64612	45.93919	186.98517	1085.76196	51.61470	135.46729	1145.52930	36.83947	70.03470
819	3.27200	864.31714	997.92767	262.37701	691.25793	975.22632	311.06516	660.27185	595.42188	380.10712	646.28754	552.30414	363.17023	614.76605	620.03296	372.84338	600.22650	577.95984	361.99039	616.31915	490.60312	341.90201	621.64514	475.27478	224.13069	657.04047	375.33780	361.71149	648.44934	329.29749	364.00064	595.11774	379.14667	352.05377	594.93475	334.77560	357.07523	601.81384	74.76277	296.86594	582.50208	103.72160	209.79976	657.58429	50.95676	249.37846	474.62192	35.50947	312.22079	421.55872	70.09333	253.17639	459.08987	38.07475	196.97397	872.23254	994.22095	142.44580	725.13177	960.63202	65.47393	845.74536	599.64880	17.34481	850.79681	553.81012	24.13679	785.21674	588.04633	25.06376	798.06989	541.85657	27.64607	863.35083	461.16287	42.84142	868.13446	440.17471	162.06412	994.96228	429.63574	36.95368	1023.68347	397.31461	33.88499	952.70459	384.17102	27.24324	987.91113	358.94299	25.10714	1178.21814	170.16014	84.06052	1135.00317	170.93199	167.16805	1240.60913	193.44823	129.71448	1117.59204	47.89626	186.92627	1084.06897	51.79106	135.12749	1144.59778	38.14848	70.21346
820	3.27600	858.79559	998.41638	262.59354	685.78796	975.44672	312.68683	655.16132	596.45703	380.34171	641.11841	553.05780	363.84341	609.72314	620.89502	372.58945	595.79926	577.91925	362.43518	611.58160	490.89880	342.42328	616.56073	475.81241	224.86517	653.17719	375.44135	361.95535	644.73901	329.54825	364.67456	591.14313	379.05936	352.53418	591.16840	334.71933	357.53293	601.19440	74.75590	296.78375	581.98938	103.61737	209.75827	657.35046	51.20494	249.45448	474.33383	35.21619	312.16611	420.93732	68.62736	252.68188	458.92075	36.94791	196.64653	866.67865	994.39178	142.62682	719.41254	960.36353	66.57828	838.19641	599.06091	17.54417	842.86560	553.07104	23.96174	777.60529	587.82758	24.78475	790.01685	541.47040	27.22831	854.68146	460.58185	42.50280	858.53888	438.57681	161.55603	986.43817	430.92230	37.40722	1015.78638	399.31961	34.14684	944.91754	384.92551	26.69884	980.44745	360.34073	24.69251	1172.68347	173.48767	83.42792	1129.54590	173.92552	166.27539	1234.30225	199.11345	129.04190	1115.55811	50.28696	186.84259	1082.06799	51.27257	135.73993	1143.69006	39.91461	70.46850
821	3.28000	853.36255	998.95453	262.84186	680.89349	975.91315	313.33502	650.37354	597.20081	380.58847	636.32043	553.62073	364.52890	604.93237	621.71161	372.60260	591.54419	577.86652	362.96210	606.77222	490.78067	342.92651	611.64166	476.29193	225.72652	648.64056	375.54620	362.66724	641.48102	330.05389	365.64804	587.28174	378.85107	352.93399	587.43298	334.60873	357.85007	600.93781	75.08772	296.37057	581.77234	104.72884	207.58385	657.17529	51.49313	249.47418	474.10098	34.92747	312.20544	420.49924	67.53266	252.45174	458.71149	36.06046	196.43985	861.22327	994.61108	142.83195	714.10266	960.60443	66.96051	830.48633	598.19653	17.43353	834.84460	552.28192	23.82324	769.74872	587.53778	24.61805	781.52332	540.94720	27.20592	845.83856	459.96387	42.17155	848.77100	437.01175	161.10153	977.69666	432.10220	37.75962	1007.31635	400.63123	34.50111	936.89191	385.74811	26.06385	972.77100	361.61673	24.26227	1166.92053	176.96495	82.74778	1123.52637	176.15079	165.71674	1227.42920	204.61806	128.19208	1113.12048	52.80846	186.86095	1080.26172	52.50975	134.39204	1142.42761	41.93172	70.67525
822	3.28400	847.99799	999.47784	263.12283	675.57452	976.22900	314.21451	645.73773	597.19849	382.52905	632.00757	554.00970	365.21854	601.12463	622.18213	373.18472	587.46973	577.80078	363.57513	602.58368	491.03757	343.31363	606.93555	476.62268	226.35759	644.92242	375.68661	363.12732	637.88458	330.14890	365.87378	583.62201	378.69846	353.34149	583.94385	334.46811	358.14401	600.34161	75.13960	296.27386	581.10217	104.62363	207.52873	656.97351	51.78285	249.45792	474.13165	35.07593	312.39307	420.02356	66.32409	252.25418	458.41919	35.14409	196.28102	855.84515	994.82855	143.11018	708.62622	960.45410	68.07993	822.42773	597.30377	17.81417	826.70386	551.46643	23.70531	761.98932	587.27161	24.40895	773.71973	540.78271	26.55170	838.91980	460.42993	41.23495	838.84961	435.52417	160.73087	968.70850	433.14871	38.02465	998.80585	402.25000	34.84151	928.66479	386.47516	25.54244	964.86578	362.84979	23.83595	1160.87036	180.57518	82.14311	1116.92761	177.95120	163.30817	1220.40356	210.52196	127.83438	1110.34766	55.20527	186.61824	1078.06506	52.89001	134.02596	1140.99231	44.33900	70.86329
